<?xml version="1.0" encoding="UTF-8"?>
<svg id="_レイヤー_2" data-name="レイヤー 2" xmlns="http://www.w3.org/2000/svg" viewBox="0 0 850.52 198.37">
  <defs>
    <style>
      .cls-1 {
        fill: #e6e6e6;
      }

      .cls-2 {
        fill: #fff;
      }

      .cls-3 {
        fill: #b3b3b3;
      }
    </style>
  </defs>
  <g id="_レイヤー_1-2" data-name="レイヤー 1">
    <g>
      <g>
        <path class="cls-2" d="m192,70.86v30.76h46.95v-30.76c0-4.39.99-7.69,2.97-9.89s4.58-3.3,7.8-3.3,5.92,1.09,7.95,3.26c2.03,2.17,3.04,5.48,3.04,9.92v84.59c0,4.44-1.03,7.76-3.08,9.96s-4.69,3.3-7.91,3.3-5.88-1.11-7.84-3.33c-1.95-2.22-2.93-5.53-2.93-9.92v-36.11h-46.95v36.11c0,4.44-1.03,7.76-3.08,9.96s-4.69,3.3-7.91,3.3-5.88-1.11-7.84-3.33c-1.95-2.22-2.93-5.53-2.93-9.92v-84.59c0-4.39.96-7.69,2.89-9.89,1.93-2.2,4.55-3.3,7.87-3.3s5.92,1.09,7.95,3.26c2.03,2.17,3.04,5.48,3.04,9.92Z"/>
        <path class="cls-2" d="m333.22,157.43c-4.83,3.76-9.51,6.58-14.03,8.46-4.52,1.88-9.58,2.82-15.2,2.82-5.13,0-9.63-1.01-13.51-3.04s-6.87-4.77-8.97-8.24c-2.1-3.47-3.15-7.23-3.15-11.28,0-5.47,1.73-10.13,5.2-13.99,3.47-3.86,8.23-6.45,14.28-7.76,1.27-.29,4.42-.95,9.45-1.98,5.03-1.03,9.34-1.96,12.93-2.82,3.59-.85,7.48-1.89,11.68-3.11-.25-5.27-1.31-9.14-3.19-11.61-1.88-2.46-5.77-3.7-11.68-3.7-5.08,0-8.9.71-11.46,2.12-2.56,1.42-4.76,3.54-6.59,6.37-1.83,2.83-3.13,4.7-3.88,5.6-.76.9-2.38,1.35-4.87,1.35-2.25,0-4.19-.72-5.82-2.16-1.64-1.44-2.45-3.28-2.45-5.53,0-3.52,1.25-6.93,3.74-10.25,2.49-3.32,6.37-6.05,11.65-8.2,5.27-2.15,11.84-3.22,19.7-3.22,8.79,0,15.7,1.04,20.73,3.11,5.03,2.08,8.58,5.36,10.66,9.85,2.07,4.49,3.11,10.45,3.11,17.87,0,4.69-.01,8.67-.04,11.94-.03,3.27-.06,6.91-.11,10.91,0,3.76.62,7.68,1.87,11.76,1.25,4.08,1.87,6.7,1.87,7.87,0,2.05-.96,3.92-2.89,5.6-1.93,1.68-4.11,2.53-6.56,2.53-2.05,0-4.08-.96-6.08-2.89-2-1.93-4.13-4.72-6.37-8.39Zm-1.32-28.93c-2.93,1.07-7.19,2.21-12.78,3.41-5.59,1.2-9.46,2.08-11.61,2.64-2.15.56-4.2,1.66-6.15,3.3-1.95,1.64-2.93,3.92-2.93,6.85s1.15,5.6,3.44,7.73c2.29,2.12,5.3,3.19,9.01,3.19,3.96,0,7.6-.87,10.95-2.6,3.34-1.73,5.8-3.97,7.36-6.7,1.81-3.03,2.71-8.01,2.71-14.94v-2.86Z"/>
        <path class="cls-2" d="m390.27,98.62v2.42c3.76-4.64,7.67-8.04,11.72-10.22,4.05-2.17,8.64-3.26,13.77-3.26,6.15,0,11.82,1.59,16.99,4.76,5.17,3.17,9.27,7.81,12.27,13.92,3,6.1,4.5,13.33,4.5,21.68,0,6.15-.87,11.8-2.6,16.96-1.73,5.15-4.11,9.47-7.14,12.96-3.03,3.49-6.6,6.18-10.73,8.06-4.13,1.88-8.56,2.82-13.29,2.82-5.71,0-10.51-1.15-14.39-3.44s-7.58-5.66-11.1-10.11v30.03c0,8.79-3.2,13.18-9.59,13.18-3.76,0-6.25-1.13-7.47-3.41-1.22-2.27-1.83-5.58-1.83-9.92v-86.28c0-3.81.83-6.65,2.49-8.53,1.66-1.88,3.93-2.82,6.81-2.82s5.14.96,6.92,2.89c1.78,1.93,2.67,4.7,2.67,8.31Zm39.18,29.08c0-5.27-.81-9.8-2.42-13.59-1.61-3.78-3.85-6.69-6.7-8.72-2.86-2.03-6.02-3.04-9.48-3.04-5.52,0-10.17,2.17-13.95,6.52-3.78,4.35-5.68,10.74-5.68,19.19,0,7.96,1.88,14.15,5.64,18.57,3.76,4.42,8.42,6.63,13.99,6.63,3.32,0,6.4-.96,9.23-2.89,2.83-1.93,5.1-4.82,6.81-8.68,1.71-3.86,2.56-8.52,2.56-13.99Z"/>
        <path class="cls-2" d="m484.02,98.62v2.42c3.76-4.64,7.67-8.04,11.72-10.22,4.05-2.17,8.64-3.26,13.77-3.26,6.15,0,11.82,1.59,16.99,4.76,5.17,3.17,9.27,7.81,12.27,13.92,3,6.1,4.5,13.33,4.5,21.68,0,6.15-.87,11.8-2.6,16.96-1.73,5.15-4.11,9.47-7.14,12.96-3.03,3.49-6.6,6.18-10.73,8.06-4.13,1.88-8.56,2.82-13.29,2.82-5.71,0-10.51-1.15-14.39-3.44s-7.58-5.66-11.1-10.11v30.03c0,8.79-3.2,13.18-9.59,13.18-3.76,0-6.25-1.13-7.47-3.41-1.22-2.27-1.83-5.58-1.83-9.92v-86.28c0-3.81.83-6.65,2.49-8.53,1.66-1.88,3.93-2.82,6.81-2.82s5.14.96,6.92,2.89c1.78,1.93,2.67,4.7,2.67,8.31Zm39.18,29.08c0-5.27-.81-9.8-2.42-13.59-1.61-3.78-3.85-6.69-6.7-8.72-2.86-2.03-6.02-3.04-9.48-3.04-5.52,0-10.17,2.17-13.95,6.52-3.78,4.35-5.68,10.74-5.68,19.19,0,7.96,1.88,14.15,5.64,18.57,3.76,4.42,8.42,6.63,13.99,6.63,3.32,0,6.4-.96,9.23-2.89,2.83-1.93,5.1-4.82,6.81-8.68,1.71-3.86,2.56-8.52,2.56-13.99Z"/>
        <path class="cls-2" d="m569.2,87.41c-2.93,0-5.31,1-7.14,3-1.83,2-2.75,4.98-2.75,8.94v57.2c0,3.91.92,6.91,2.75,9.01,1.83,2.1,4.21,3.15,7.14,3.15s5.35-1.03,7.25-3.08,2.86-5.08,2.86-9.08v-57.79c0-3.56-.95-6.35-2.86-8.35-1.9-2-4.32-3-7.25-3Z"/>
        <path class="cls-2" d="m655.77,132.97h-39.11c.05,4.54.96,8.55,2.75,12.01,1.78,3.47,4.15,6.08,7.1,7.84s6.21,2.64,9.78,2.64c2.39,0,4.58-.28,6.56-.84,1.98-.56,3.89-1.44,5.75-2.64,1.86-1.2,3.56-2.48,5.13-3.85,1.56-1.37,3.59-3.22,6.08-5.57,1.03-.88,2.49-1.32,4.39-1.32,2.05,0,3.71.56,4.98,1.68,1.27,1.12,1.9,2.71,1.9,4.76,0,1.81-.71,3.92-2.12,6.34-1.42,2.42-3.55,4.74-6.41,6.96-2.86,2.22-6.45,4.06-10.77,5.53-4.32,1.46-9.29,2.2-14.91,2.2-12.84,0-22.83-3.66-29.96-10.99-7.13-7.32-10.69-17.26-10.69-29.81,0-5.91.88-11.39,2.64-16.44,1.76-5.05,4.32-9.39,7.69-13,3.37-3.61,7.52-6.38,12.45-8.31,4.93-1.93,10.4-2.89,16.41-2.89,7.81,0,14.51,1.65,20.1,4.94s9.78,7.56,12.56,12.78c2.78,5.23,4.17,10.55,4.17,15.97,0,5.03-1.44,8.29-4.32,9.78-2.88,1.49-6.93,2.23-12.16,2.23Zm-39.11-11.35h36.25c-.49-6.84-2.33-11.95-5.53-15.34-3.2-3.39-7.41-5.09-12.63-5.09s-9.07,1.72-12.27,5.16c-3.2,3.44-5.14,8.53-5.82,15.27Z"/>
        <path class="cls-2" d="m760.8,143.95c0,2.49-.75,5.15-2.23,7.98-1.49,2.83-3.76,5.53-6.81,8.09-3.05,2.56-6.9,4.63-11.54,6.19-4.64,1.56-9.86,2.34-15.67,2.34-12.35,0-22-3.6-28.93-10.8-6.93-7.2-10.4-16.86-10.4-28.97,0-8.2,1.59-15.45,4.76-21.75,3.17-6.3,7.76-11.17,13.77-14.61,6.01-3.44,13.18-5.16,21.53-5.16,5.17,0,9.92.76,14.25,2.27,4.32,1.51,7.98,3.47,10.99,5.86,3,2.39,5.3,4.94,6.88,7.65s2.38,5.24,2.38,7.58-.89,4.42-2.67,6.08c-1.78,1.66-3.94,2.49-6.48,2.49-1.66,0-3.04-.43-4.14-1.28-1.1-.85-2.33-2.23-3.7-4.14-2.44-3.71-4.99-6.49-7.65-8.35-2.66-1.85-6.04-2.78-10.14-2.78-5.91,0-10.67,2.31-14.28,6.92-3.61,4.61-5.42,10.93-5.42,18.93,0,3.76.46,7.21,1.39,10.36.93,3.15,2.27,5.84,4.03,8.06,1.76,2.22,3.88,3.91,6.37,5.05,2.49,1.15,5.22,1.72,8.2,1.72,4,0,7.43-.93,10.29-2.78,2.86-1.85,5.38-4.69,7.58-8.5,1.22-2.25,2.54-4,3.96-5.27,1.42-1.27,3.15-1.9,5.2-1.9,2.44,0,4.47.93,6.08,2.78,1.61,1.86,2.42,3.83,2.42,5.93Z"/>
        <path class="cls-2" d="m834.05,132.97h-39.11c.05,4.54.96,8.55,2.75,12.01,1.78,3.47,4.15,6.08,7.1,7.84s6.21,2.64,9.78,2.64c2.39,0,4.58-.28,6.56-.84,1.98-.56,3.89-1.44,5.75-2.64,1.86-1.2,3.56-2.48,5.13-3.85,1.56-1.37,3.59-3.22,6.08-5.57,1.03-.88,2.49-1.32,4.39-1.32,2.05,0,3.71.56,4.98,1.68,1.27,1.12,1.9,2.71,1.9,4.76,0,1.81-.71,3.92-2.12,6.34-1.42,2.42-3.55,4.74-6.41,6.96-2.86,2.22-6.45,4.06-10.77,5.53-4.32,1.46-9.29,2.2-14.91,2.2-12.84,0-22.83-3.66-29.96-10.99-7.13-7.32-10.69-17.26-10.69-29.81,0-5.91.88-11.39,2.64-16.44s4.32-9.39,7.69-13c3.37-3.61,7.52-6.38,12.45-8.31,4.93-1.93,10.4-2.89,16.41-2.89,7.81,0,14.51,1.65,20.1,4.94s9.78,7.56,12.56,12.78c2.78,5.23,4.17,10.55,4.17,15.97,0,5.03-1.44,8.29-4.32,9.78-2.88,1.49-6.93,2.23-12.16,2.23Zm-39.11-11.35h36.25c-.49-6.84-2.33-11.95-5.53-15.34-3.2-3.39-7.41-5.09-12.63-5.09s-9.07,1.72-12.27,5.16c-3.2,3.44-5.14,8.53-5.82,15.27Z"/>
      </g>
      <path class="cls-1" d="m559.31,34.93v44.65s43-17.65,47-21.65c0,0-37-14.25-47-23Z"/>
      <path class="cls-2" d="m74.31,0v44.65s43-17.65,47-21.65c0,0-37-14.25-47-23Z"/>
      <polygon class="cls-2" points="0 171.84 75.44 42.98 149.31 170.93 0 171.84"/>
      <polygon class="cls-3" points="41.54 171.34 75.71 112.97 109.18 170.93 41.54 171.34"/>
    </g>
  </g>
</svg>